<mxfile host="app.diagrams.net" modified="2021-05-29T11:35:06.389Z" agent="5.0 (X11; Linux x86_64) AppleWebKit/537.36 (KHTML, like Gecko) Chrome/91.0.4472.77 Safari/537.36" etag="Hq-f_DSpN3pY1T5Zx3b5" version="14.7.2" type="github">
  <diagram id="OLHDvAYr1XDLkRCobP8q" name="Page-1">
    <mxGraphModel dx="1416" dy="797" grid="1" gridSize="10" guides="1" tooltips="1" connect="1" arrows="1" fold="1" page="1" pageScale="1" pageWidth="850" pageHeight="1100" math="0" shadow="0">
      <root>
        <mxCell id="0" />
        <mxCell id="1" parent="0" />
        <mxCell id="KOiYrxqsqVpmPpbS54Qr-11" value="" style="rounded=0;whiteSpace=wrap;html=1;dashed=1;" vertex="1" parent="1">
          <mxGeometry width="840" height="680" as="geometry" />
        </mxCell>
        <mxCell id="KOiYrxqsqVpmPpbS54Qr-1" value="ID: 1&lt;br&gt;Index: 1" style="rounded=1;whiteSpace=wrap;html=1;fillColor=#dae8fc;strokeColor=#6c8ebf;" vertex="1" parent="1">
          <mxGeometry x="40" y="40" width="80" height="240" as="geometry" />
        </mxCell>
        <mxCell id="KOiYrxqsqVpmPpbS54Qr-10" style="edgeStyle=orthogonalEdgeStyle;rounded=0;orthogonalLoop=1;jettySize=auto;html=1;exitX=0.5;exitY=1;exitDx=0;exitDy=0;entryX=0.5;entryY=0;entryDx=0;entryDy=0;curved=1;" edge="1" parent="1" source="KOiYrxqsqVpmPpbS54Qr-2" target="KOiYrxqsqVpmPpbS54Qr-6">
          <mxGeometry relative="1" as="geometry" />
        </mxCell>
        <mxCell id="KOiYrxqsqVpmPpbS54Qr-2" value="&lt;span&gt;ID: 2&lt;/span&gt;&lt;br&gt;&lt;span&gt;Index: 2&lt;/span&gt;" style="rounded=1;whiteSpace=wrap;html=1;fillColor=#d5e8d4;strokeColor=#82b366;" vertex="1" parent="1">
          <mxGeometry x="160" y="40" width="80" height="240" as="geometry" />
        </mxCell>
        <mxCell id="KOiYrxqsqVpmPpbS54Qr-3" value="&lt;span&gt;ID: 3&lt;/span&gt;&lt;br&gt;&lt;span&gt;Index: 3&lt;/span&gt;" style="rounded=1;whiteSpace=wrap;html=1;fillColor=#ffe6cc;strokeColor=#d79b00;" vertex="1" parent="1">
          <mxGeometry x="280" y="40" width="80" height="240" as="geometry" />
        </mxCell>
        <mxCell id="KOiYrxqsqVpmPpbS54Qr-4" value="&lt;span&gt;ID: 4&lt;/span&gt;&lt;br&gt;&lt;span&gt;Index: 4&lt;/span&gt;" style="rounded=1;whiteSpace=wrap;html=1;fillColor=#fff2cc;strokeColor=#d6b656;" vertex="1" parent="1">
          <mxGeometry x="400" y="40" width="80" height="240" as="geometry" />
        </mxCell>
        <mxCell id="KOiYrxqsqVpmPpbS54Qr-5" value="ID: 1&lt;br&gt;Index: 1" style="rounded=1;whiteSpace=wrap;html=1;fillColor=#dae8fc;strokeColor=#6c8ebf;" vertex="1" parent="1">
          <mxGeometry x="40" y="360" width="80" height="240" as="geometry" />
        </mxCell>
        <mxCell id="KOiYrxqsqVpmPpbS54Qr-6" value="&lt;span&gt;ID: 2&lt;/span&gt;&lt;br&gt;&lt;span&gt;Index: 4&lt;/span&gt;" style="rounded=1;whiteSpace=wrap;html=1;fillColor=#d5e8d4;strokeColor=#82b366;dashed=1;" vertex="1" parent="1">
          <mxGeometry x="520" y="360" width="80" height="240" as="geometry" />
        </mxCell>
        <mxCell id="KOiYrxqsqVpmPpbS54Qr-7" value="&lt;span&gt;ID: 3&lt;/span&gt;&lt;br&gt;&lt;span&gt;Index: 2&lt;/span&gt;" style="rounded=1;whiteSpace=wrap;html=1;fillColor=#ffe6cc;strokeColor=#d79b00;" vertex="1" parent="1">
          <mxGeometry x="280" y="360" width="80" height="240" as="geometry" />
        </mxCell>
        <mxCell id="KOiYrxqsqVpmPpbS54Qr-8" value="&lt;span&gt;ID: 4&lt;/span&gt;&lt;br&gt;&lt;span&gt;Index: 3&lt;/span&gt;" style="rounded=1;whiteSpace=wrap;html=1;fillColor=#fff2cc;strokeColor=#d6b656;" vertex="1" parent="1">
          <mxGeometry x="400" y="360" width="80" height="240" as="geometry" />
        </mxCell>
        <mxCell id="KOiYrxqsqVpmPpbS54Qr-12" value="&amp;nbsp; {&lt;br&gt;&amp;nbsp; &amp;nbsp; &amp;nbsp; &quot;columnID&quot;: 2,&lt;br&gt;&amp;nbsp; &amp;nbsp; &amp;nbsp; &quot;nextOfIndex&quot;: 4&lt;br&gt;&amp;nbsp; }" style="rounded=1;whiteSpace=wrap;html=1;align=left;" vertex="1" parent="1">
          <mxGeometry x="620" y="80" width="160" height="160" as="geometry" />
        </mxCell>
        <mxCell id="KOiYrxqsqVpmPpbS54Qr-15" value="" style="endArrow=classic;html=1;exitX=1;exitY=0.5;exitDx=0;exitDy=0;dashed=1;" edge="1" parent="1" source="KOiYrxqsqVpmPpbS54Qr-2">
          <mxGeometry width="50" height="50" relative="1" as="geometry">
            <mxPoint x="400" y="380" as="sourcePoint" />
            <mxPoint x="650" y="150" as="targetPoint" />
          </mxGeometry>
        </mxCell>
        <mxCell id="KOiYrxqsqVpmPpbS54Qr-16" value="" style="endArrow=classic;html=1;exitX=1;exitY=0.75;exitDx=0;exitDy=0;dashed=1;" edge="1" parent="1" source="KOiYrxqsqVpmPpbS54Qr-4">
          <mxGeometry width="50" height="50" relative="1" as="geometry">
            <mxPoint x="400" y="380" as="sourcePoint" />
            <mxPoint x="640" y="170" as="targetPoint" />
          </mxGeometry>
        </mxCell>
      </root>
    </mxGraphModel>
  </diagram>
</mxfile>
